<svg height="16" viewBox="0 0 16 16" width="16" xmlns="http://www.w3.org/2000/svg"><path class="warning" d="m9.5 8c-.832031 0-1.5.667969-1.5 1.5v5c0 .832031.667969 1.5 1.5 1.5h5c.832031 0 1.5-.667969 1.5-1.5v-5c0-.832031-.667969-1.5-1.5-1.5zm1.5 1h2v2.5s0 .5-.5.5h-1c-.5 0-.5-.5-.5-.5zm.5 4h1c.277344 0 .5.222656.5.5v1c0 .277344-.222656.5-.5.5h-1c-.277344 0-.5-.222656-.5-.5v-1c0-.277344.222656-.5.5-.5zm0 0" fill="#ff7800"/><path d="m5.5839844 0c-1.3245813 0-2.4160157 1.0914349-2.4160156 2.4160156v8.0546874c0 1.324582 1.0914343 2.416016 2.4160156 2.416016h1.3632812v-2.416016h-1.3632812c-.4467714 0-.8066406-.357916-.8066406-.8046874v-7.25c0-.4593555.3472849-.8046875.8066406-.8046875h.8046875c0 .4467716.3598693.8046875.8066406.8046875h1.609375c.4467715 0 .8066406-.3579159.8066406-.8046875h.8046879c.459355 0 .80664.345332.80664.8046875v4.8339844h1.609375v-4.8339844c0-1.3245807-1.091434-2.4160156-2.416015-2.4160156z" fill="#2f3537" stroke-width=".805447"/></svg>