<svg height="16" viewBox="0 0 16 16" width="16" xmlns="http://www.w3.org/2000/svg"><g fill="#2e3436"><circle cx="10.081377" cy="14.705316" r="1.294684"/><circle cx="1.851777" cy="14.705316" r="1.294684"/><circle cx="5.966577" cy="14.705316" r="1.294684"/><circle cx="14.196177" cy="14.705316" r="1.294684"/><path d="m5.583659.01457629c-1.3245826 0-2.416341 1.09175851-2.416341 2.41634111v8.0544696c0 1.324583 1.0917584 2.416341 2.416341 2.416341h4.832682c1.324583 0 2.416341-1.091758 2.416341-2.416341v-8.0544696c0-1.3245826-1.091758-2.41634111-2.416341-2.41634111zm0 1.61089401h.805447c0 .4467718.3586753.8054471.805447.8054471h1.610894c.4467719 0 .8054471-.3586753.8054471-.8054471h.8054469c.459356 0 .805447.346091.805447.8054471v7.2490231c0 .4467715-.358675.8054465-.805447.8054465h-4.832682c-.4467718 0-.8054471-.358675-.8054471-.8054465v-7.2490231c0-.4593561.346091-.8054471.8054471-.8054471zm0 0" fill="#2e3436" stroke-width=".805447"/></g></svg>